<svg xmlns="http://www.w3.org/2000/svg" xml:space="preserve" x="0" y="0"
	version="1.1" viewBox="0 0 365.67 56.69">
	<path fill="currentColor" d="M42.3 16.1c-5.27 0-9.29 2.03-12.06 6.1-2.59-4.07-6.46-6.1-11.63-6.1-4.31 0-7.78 1.48-10.41 4.45v-3.73H1.01v35.91h7.18V31.54c0-2.63.77-4.74 2.3-6.32 1.58-1.53 3.69-2.3 6.32-2.3 2.63 0 4.74.77 6.32 2.3 1.53 1.58 2.3 3.69 2.3 6.32v21.18h7.18V31.54c0-2.63.77-4.74 2.3-6.32 1.58-1.53 3.69-2.3 6.32-2.3 2.63 0 4.74.77 6.32 2.3 1.53 1.58 2.3 3.69 2.3 6.32v21.18h7.18V31.54c0-4.5-1.34-8.19-4.02-11.06-2.73-2.92-6.3-4.38-10.71-4.38zM75.09 31.54c.67-2.54 2.01-4.57 4.02-6.1 2.06-1.58 4.48-2.37 7.25-2.37 2.78 0 5.19.79 7.25 2.37 2.01 1.53 3.35 3.57 4.02 6.1H75.09zM104.96 38c.19-1.29.29-2.37.29-3.23 0-5.41-1.8-9.86-5.39-13.36-3.54-3.54-8.04-5.31-13.5-5.31-5.46 0-9.98 1.77-13.57 5.31-3.54 3.49-5.31 7.95-5.31 13.36 0 5.41 1.77 9.86 5.31 13.36 3.59 3.54 8.11 5.31 13.57 5.31 4.17 0 7.83-1.08 10.99-3.23 3.11-2.15 5.34-5.03 6.68-8.62h-7.97c-2.25 3.26-5.48 4.88-9.69 4.88-2.78 0-5.2-.79-7.25-2.37-2.01-1.53-3.35-3.57-4.02-6.1h29.86zM127.12 6.77l-7.18 2.15v7.9h-7.9v6.82h7.9v29.09h7.18V23.64h8.62v-6.82h-8.62zM160.91 46.62c-3.5 0-6.34-1.1-8.55-3.3-2.2-2.2-3.3-5.05-3.3-8.55 0-3.49 1.1-6.34 3.3-8.55 2.2-2.2 5.05-3.3 8.55-3.3 3.49 0 6.34 1.1 8.55 3.3 2.2 2.2 3.3 5.05 3.3 8.55 0 3.49-1.1 6.34-3.3 8.55-2.21 2.2-5.06 3.3-8.55 3.3zm11.85-29.8v4.74c-3.45-3.64-7.76-5.46-12.93-5.46-5.12 0-9.38 1.77-12.78 5.31-3.45 3.59-5.17 8.04-5.17 13.36 0 5.31 1.72 9.77 5.17 13.36 3.4 3.54 7.66 5.31 12.78 5.31 5.17 0 9.48-1.82 12.93-5.46v4.74h7.18v-35.9h-7.18zM194.06 2.46v50.27h30.17V45.9h-22.98V2.46zM238.27 31.54c.67-2.54 2.01-4.57 4.02-6.1 2.06-1.58 4.48-2.37 7.25-2.37 2.78 0 5.19.79 7.25 2.37 2.01 1.53 3.35 3.57 4.02 6.1h-22.54zM268.14 38c.19-1.29.29-2.37.29-3.23 0-5.41-1.79-9.86-5.38-13.36-3.54-3.54-8.04-5.31-13.5-5.31-5.46 0-9.98 1.77-13.57 5.31-3.54 3.49-5.31 7.95-5.31 13.36 0 5.41 1.77 9.86 5.31 13.36 3.59 3.54 8.12 5.31 13.57 5.31 4.16 0 7.83-1.08 10.99-3.23 3.11-2.15 5.34-5.03 6.68-8.62h-7.97c-2.25 3.26-5.48 4.88-9.69 4.88-2.78 0-5.19-.79-7.25-2.37-2.01-1.53-3.35-3.57-4.02-6.1h29.85zM296.26 46.62c-3.5 0-6.34-1.1-8.55-3.3-2.2-2.2-3.3-5.05-3.3-8.55 0-3.49 1.1-6.34 3.3-8.55 2.2-2.2 5.05-3.3 8.55-3.3 3.49 0 6.34 1.1 8.55 3.3 2.2 2.2 3.3 5.05 3.3 8.55 0 3.49-1.1 6.34-3.3 8.55-2.21 2.2-5.06 3.3-8.55 3.3zm11.85-29.8v4.74c-3.45-3.64-7.76-5.46-12.93-5.46-5.12 0-9.38 1.77-12.78 5.31-3.45 3.59-5.17 8.04-5.17 13.36 0 5.31 1.72 9.77 5.17 13.36 3.4 3.54 7.66 5.31 12.78 5.31 5.17 0 9.48-1.82 12.93-5.46v4.74h7.18v-35.9h-7.18zM345.49 46.62c-3.5 0-6.34-1.1-8.55-3.3-2.2-2.2-3.3-5.05-3.3-8.55 0-3.49 1.1-6.34 3.3-8.55 2.2-2.2 5.05-3.3 8.55-3.3 3.49 0 6.34 1.1 8.55 3.3 2.2 2.2 3.3 5.05 3.3 8.55 0 3.49-1.1 6.34-3.3 8.55-2.21 2.2-5.06 3.3-8.55 3.3zm11.85-44.16v19.1c-3.45-3.64-7.76-5.46-12.93-5.46-5.12 0-9.38 1.77-12.78 5.31-3.45 3.59-5.17 8.04-5.17 13.36 0 5.31 1.72 9.77 5.17 13.36 3.4 3.54 7.66 5.31 12.78 5.31 5.17 0 9.48-1.82 12.93-5.46v4.74h7.18V2.46h-7.18z"/>
</svg>